<svg xmlns="http://www.w3.org/2000/svg" viewBox="0 0 738.15 802.09"><defs><style>.cls-1{fill:none;stroke:#fff;stroke-miterlimit:10;stroke-width:3px;}</style></defs><g id="Layer_2" data-name="Layer 2"><g id="Layer_1-2" data-name="Layer 1"><path class="cls-1" d="M513.57,95.71l13.77,31.22,33.92-3.69c136.47-14.84,225.58,139.5,144.5,250.27L685.6,401.05l20.16,27.53c81.08,110.77-8,265.11-144.5,250.27l-33.92-3.69-13.77,31.23c-55.38,125.6-233.61,125.6-289,0l-13.77-31.23-33.92,3.69C40.42,693.69-48.69,539.35,32.4,428.58l20.15-27.53L32.4,373.51c-81.09-110.77,8-265.11,144.49-250.27l33.92,3.69,13.77-31.22C280-29.9,458.19-29.9,513.57,95.71Z"/></g></g></svg>