<svg xmlns="http://www.w3.org/2000/svg" viewBox="0 0 152.67 125.8"><defs><style>.cls-1,.cls-2{fill:none;stroke:#fff;stroke-width:2px;}.cls-1{stroke-miterlimit:10;}.cls-2{stroke-linecap:square;stroke-linejoin:bevel;}.cls-3{fill:#fff;}</style></defs><g id="Layer_2" data-name="Layer 2"><g id="Layer_1-2" data-name="Layer 1"><path class="cls-1" d="M100.44,21.19a25.18,25.18,0,0,0-49.86,5"/><polyline class="cls-2" points="104.65 12.53 102.56 16.89 100.46 21.25 96.02 19.34 91.58 17.44"/><path class="cls-1" d="M52.22,35.44a25.19,25.19,0,0,0,49.87-5"/><polyline class="cls-2" points="48.02 44.1 50.11 39.74 52.2 35.38 56.65 37.29 61.09 39.2"/><path class="cls-3" d="M7.37,94.3c1.26,1.19,3,1.81,4,.68,3-3.18-7.32-11.17-2.29-16.51,2.57-2.72,6.82-2.4,10.57,1.14S24.74,88,22.45,90.86l-5.28-3A3.48,3.48,0,0,0,16.68,83c-1.26-1.19-2.92-1.44-3.81-.49C10,85.53,20.43,93.62,15.4,99,12.66,101.86,8,101.25,4,97.5c-4.16-3.92-5.19-9.11-2.43-12.24L6.83,88.5A4,4,0,0,0,7.37,94.3Z"/><path class="cls-3" d="M29.69,88.75l9.6,5.12a7.19,7.19,0,0,1,3.11,10.06c-2,3.77-6.38,4.92-10.43,2.76l-4.61-2.46-3.85,7.23L18.9,109Zm3.64,14.35a3.12,3.12,0,0,0,2.92-5.49l-4.17-2.22-2.93,5.48Z"/><path class="cls-3" d="M54.42,99.63l-6.7,21.94-5-1.52,6.7-22Z"/><path class="cls-3" d="M59,101.28l5.91.51,6.85,15.9,1.31-15.2,5.2.45-2,22.86-5.62-.48-7.11-16.2-1.33,15.47-5.21-.45Z"/><path class="cls-3" d="M97.34,99.33l.45,2.54a3.68,3.68,0,0,0-.92.11,2,2,0,0,0-1.59,1.21,2.86,2.86,0,0,1,3.51,2.29,3,3,0,0,1-2.27,3.73c-1.93.45-3.66-.88-4.24-3.35a5.09,5.09,0,0,1,3.86-6.36A6.92,6.92,0,0,1,97.34,99.33Z"/><path class="cls-3" d="M101.61,98.52l15-6.64,1.91,4.33-10.19,4.52L110.2,105l8.39-3.72,1.48,3.35-8.39,3.72,2.06,4.65,10.59-4.69,1.94,4.39-15.36,6.81Z"/><path class="cls-3" d="M119.73,90.47l5.2-4.45,15.62,10.33-7.84-17,5-4.32,14.92,17.44-4,3.39L137.68,83l7.37,16-2.68,2.3L127.6,91.64l11,12.87-4,3.4Z"/></g></g></svg>